<?xml version="1.0" encoding="utf-8"?>
<!-- Generator: Adobe Illustrator 23.0.3, SVG Export Plug-In . SVG Version: 6.00 Build 0)  -->
<svg version="1.1" id="Layer_1" xmlns="http://www.w3.org/2000/svg" xmlns:xlink="http://www.w3.org/1999/xlink" x="0px" y="0px"
	 viewBox="0 0 97 18" style="enable-background:new 0 0 97 18;" xml:space="preserve">
<title  id="logotype-formidable">Formidable</title>
<g>
	<g>
		<g>
			<path d="M3.3,3.6c0-0.3,0.1-0.4,0.4-0.4h7.8c0.3,0,0.4,0.1,0.4,0.4v1.2c0,0.2-0.1,0.3-0.3,0.3H5.2v3.5h5c0.3,0,0.4,0.1,0.4,0.4v1
				c0,0.3-0.1,0.4-0.4,0.4h-5v5.2c0,0.3-0.1,0.4-0.4,0.4H3.6c-0.3,0-0.4-0.1-0.4-0.4L3.3,3.6L3.3,3.6z"/>
			<path d="M11.7,11.6c0-2.7,1.9-4.4,4.4-4.4s4.4,1.7,4.4,4.4c0,2.9-2,4.4-4.4,4.4S11.7,14.5,11.7,11.6z M18.6,11.6
				c0-1.8-1.1-2.8-2.5-2.8c-1.4,0-2.5,1-2.5,2.8c0,1.7,0.9,2.8,2.5,2.8C17.6,14.4,18.6,13.3,18.6,11.6z"/>
			<path d="M22,7.7c0-0.3,0.1-0.4,0.4-0.4h1.1c0.3,0,0.4,0.1,0.4,0.4v0.8c0.6-0.8,1.5-1.3,2.7-1.3c1.6,0,2.6,1,2.6,2.5
				c0,0.3-0.1,0.4-0.4,0.4h-1.1c-0.2,0-0.3-0.1-0.3-0.3c-0.1-0.6-0.4-1-1.2-1c-0.7,0-1.3,0.5-1.7,1s-0.6,1.2-0.6,2.3v3.3
				c0,0.3-0.1,0.4-0.4,0.4h-1.1c-0.3,0-0.4-0.1-0.4-0.4L22,7.7L22,7.7z"/>
			<path d="M30.4,7.7c0-0.3,0.1-0.4,0.4-0.4h1.1c0.3,0,0.4,0.1,0.4,0.4v0.8c0.6-0.8,1.3-1.3,2.5-1.3c1.1,0,1.8,0.4,2.1,1.2
				c0.6-0.7,1.5-1.2,2.7-1.2c1.5,0,2.5,0.8,2.5,2.5v5.8c0,0.3-0.1,0.4-0.4,0.4h-1.1c-0.3,0-0.4-0.1-0.4-0.4V9.9
				c0-0.8-0.3-1.2-1.1-1.2c-0.5,0-1,0.3-1.5,0.8c-0.4,0.5-0.6,1-0.6,1.9v4c0,0.3-0.1,0.4-0.4,0.4h-1.1c-0.3,0-0.4-0.1-0.4-0.4V9.9
				c0-0.8-0.3-1.2-1.1-1.2c-0.5,0-1,0.3-1.4,0.8c-0.4,0.5-0.6,0.8-0.6,1.8v4.1c0,0.3-0.1,0.4-0.4,0.4h-1.1c-0.3,0-0.4-0.1-0.4-0.4
				L30.4,7.7L30.4,7.7z"/>
			<path d="M45,3.5c0.7,0,1.2,0.5,1.2,1.2C46.3,5.5,45.7,6,45,6c-0.7,0-1.2-0.5-1.2-1.2C43.8,4.1,44.4,3.5,45,3.5z M44.1,7.7
				c0-0.3,0.1-0.4,0.4-0.4h1.1c0.3,0,0.4,0.1,0.4,0.4v7.7c0,0.3-0.1,0.4-0.4,0.4h-1.1c-0.3,0-0.4-0.1-0.4-0.4V7.7z"/>
			<path d="M54.4,15.1C53.7,15.7,53,16,51.7,16c-2.1,0-3.9-1.5-3.9-4.4c0-2.8,1.9-4.4,4.1-4.4c1.1,0,1.9,0.3,2.4,0.9V3.2
				c0-0.3,0.1-0.4,0.4-0.4h1.1c0.3,0,0.4,0.1,0.4,0.4v12.2c0,0.3-0.1,0.4-0.3,0.4H55c-0.3,0-0.4-0.1-0.5-0.4L54.4,15.1z M54.4,10.9
				c0-0.6-0.1-0.9-0.5-1.3c-0.4-0.4-1-0.8-1.7-0.8c-1.4,0-2.4,1.1-2.4,2.8c0,1.6,0.9,2.8,2.4,2.8c0.8,0,1.4-0.3,1.8-0.8
				c0.3-0.4,0.4-0.8,0.4-1.4L54.4,10.9L54.4,10.9z"/>
			<path d="M64.8,15c-0.7,0.7-1.4,1-2.7,1c-2.3,0-4.2-1.5-4.2-4.4c0-2.8,1.9-4.4,4.3-4.4c1.3,0,2.1,0.4,2.6,1V7.7
				c0-0.3,0.1-0.4,0.4-0.4h1.1c0.3,0,0.4,0.1,0.4,0.4v7.7c0,0.3-0.1,0.4-0.4,0.4h-0.9c-0.2,0-0.4-0.1-0.4-0.4L64.8,15z M64.8,10.8
				c0-0.5-0.1-0.9-0.5-1.3c-0.4-0.4-1-0.7-1.8-0.7c-1.5,0-2.6,1.1-2.6,2.8c0,1.7,1.1,2.8,2.6,2.8c0.9,0,1.6-0.4,2-0.9
				c0.3-0.4,0.4-0.8,0.4-1.3V10.8z"/>
			<path d="M68.6,3.2c0-0.3,0.1-0.4,0.4-0.4h1.1c0.3,0,0.4,0.1,0.4,0.4v5.4c0.7-0.8,1.7-1.4,3-1.4c2.4,0,3.7,1.6,3.7,4.4
				c0,2.5-1.5,4.4-4.2,4.4c-1,0-1.8-0.3-2.5-0.7v0.2c0,0.3-0.1,0.4-0.4,0.4H69c-0.3,0-0.4-0.1-0.4-0.4V3.2z M70.5,13
				c0,0.4,0.2,0.6,0.5,0.8c0.5,0.4,1.2,0.6,1.8,0.6c1.6,0,2.5-1.2,2.5-2.8c0-1.9-0.9-2.8-2.2-2.8c-1.2,0-1.9,0.8-2.3,1.4
				c-0.2,0.4-0.4,0.7-0.4,1.3L70.5,13L70.5,13z"/>
			<path d="M78.7,3.2c0-0.3,0.1-0.4,0.4-0.4h1.1c0.3,0,0.4,0.1,0.4,0.4v10.3c0,0.6,0.3,0.9,0.7,0.9c0.4,0,0.6-0.2,0.8-0.2
				c0.1,0,0.2,0.1,0.2,0.2v1.1c0,0.2-0.1,0.2-0.2,0.3c-0.3,0.1-0.8,0.2-1.2,0.2c-1,0-2.1-0.6-2.1-2.1V3.2L78.7,3.2z"/>
			<path d="M91.1,14c0.1,0.1,0.1,0.1,0.1,0.2s0,0.1-0.1,0.2c-1.2,1.2-2,1.6-3.7,1.6c-2.2,0-4.4-1.6-4.4-4.4c0-2.7,1.9-4.4,4.3-4.4
				c2.9,0,4.2,2.2,4.2,4.3v0.4c0,0.3-0.1,0.4-0.4,0.4h-6.3c0.2,1.4,1.2,2.2,2.6,2.2c1.2,0,1.8-0.4,2.4-1.1c0.1-0.1,0.2-0.2,0.3-0.2
				c0.1,0,0.1,0,0.2,0.1L91.1,14z M89.7,10.7c-0.3-1.3-1.3-1.9-2.3-1.9c-1.2,0-2.2,0.7-2.5,1.9H89.7z"/>
		</g>
		<g>
			<path d="M91.5,7.8h0.1c0,0.1,0.1,0.2,0.2,0.2C92,8,92,7.9,92,7.8c0-0.1-0.1-0.1-0.3-0.2c-0.2-0.1-0.3-0.1-0.3-0.3
				c0-0.1,0.1-0.3,0.3-0.3c0.2,0,0.3,0.1,0.3,0.3H92c0-0.1-0.1-0.2-0.2-0.2c-0.1,0-0.2,0.1-0.2,0.1c0,0.1,0.1,0.1,0.2,0.1
				c0.2,0.1,0.4,0.1,0.4,0.3c0,0.2-0.1,0.3-0.3,0.3C91.6,8.1,91.5,8,91.5,7.8z"/>
			<path d="M92.4,7.2h0.2l0.2,0.6c0,0.1,0.1,0.2,0.1,0.2h0c0,0,0,0,0.1-0.2l0.2-0.6h0.2v0.9h-0.1l0-0.8h0c0,0,0,0.1-0.1,0.2
				l-0.2,0.6h-0.1l-0.2-0.6c0-0.1-0.1-0.2-0.1-0.2h0v0.8h-0.1V7.2L92.4,7.2z"/>
		</g>
	</g>
</g>
</svg>
