<svg viewBox="0 0 1719 1568" xmlns="http://www.w3.org/2000/svg"><g fill="none" fill-rule="evenodd"><path d="M413.21 673.089s-24.851 42.652-51.545 99.703c-26.694 57.052-33.549 93.022-33.549 93.022l66.31-20.844 10.521-11.105 31.972-19.102s56.784-23.834 69.003-35.393c27.577 2.642 60.273-27.081 78.218-40.291 29.612-11.56 57.854-17.874 57.854-17.874s.986-4.915-.47-15.051c-10.433-10.67-33.547-14.492-48.413-7.037-12.351 6.193-7.431 3.633-17.999 2.477-2.972 34.677-24.77 30.714-34.245 14.908-6.843-11.416-2.249-7.477-5.717-14.743-8.917-1.982-16.819-7.624-22.622-18.66-4.48-8.518-4.933-20.316-5.634-35.032-11.26-5.429-28.712-23.873-28.712-23.873s-13.323-5.879-32.155 7.625c-18.832 13.503-32.817 41.27-32.817 41.27zM627.126 586.447l-3.618-20.047-47.309-18.628 13.601 17.741zM974.18 637.444s-11.16 60.611-29.73 91.479c-23.27 38.67-41.22 26.29-68.92 51.379-16.45 14.897-13.27 69.473-42.34 78.389-29.075 8.916-79.701 17.742-79.701 17.742s70.021 78.429 99.471 86.147c3.88-33.337 18.31-55.272 18.31-55.272l72.01-68 5.04 8.916s41.87-53.883 79.47-86.445c-2.33-47.294 1.94-89.547 1.94-89.547l22.14-5.468s6.66-7.112 16.29-15.854c-14.22-16.002-22.07-40.301-22.07-40.301s-12.96-5.816-19.86-2.37c-5.33 6.223-4.29 20.446-9.18 29.929-17.34 2.815-42.87-.724-42.87-.724zM1329.27 1364.13c-9.58-89.85-7.06-374.215-27.1-380.358-25.81-13.056-131.8-37.408-163.24-76.818-9.39-11.76 17.91-41.388 14.14-58.986-5.65-26.361-72.37-31.782-72.37-31.782l38.69-13.378 61.04-9.908 140.94-3.307-150.01 94.666 124.55-5.394 79.29 6.668 13.39 13.952 10.16 27.417-16.3 116.368-41.95 299.9s-1.65 110.81-11.23 20.96zM706.612 1195.89s-16.522 121.05-15.765 196.82c.732 73.16 61.787 62.17 89.409 86.38 27.624 24.22 8.146-6.27 8.146-6.27l-20.269-134.66 34.096-101.15-28.035-2.28-67.582-38.84z" fill="#8C8994" opacity=".3"></path><path d="M1571.42 966.422s-15.9-40.637-63.68-75.061c-47.78-34.424-76.23-54.115-127.43-62.635-51.21-8.521-109.33-3.132-109.33-3.132l49.44-39.936 4.05 17.377 107.06-12.081 112.27-16.261 51.24 39.931 43.39 60.158-67.01 91.64zM399.918 843.376l-58.352 20.755-58.754 7.714s-19.547 147.405-24.966 226.025c-5.419 78.63 1.091 57.8 4.904 101.65 3.813 43.85-2.305 39.93 2.675 71.33s289.044 183.04 303.992 163.92c19.985-25.56-24.54-87.57-18.473-178.61.953-14.3-4.693-39.42-4.693-39.42s10.045-23.72 1.788-22.71c-8.258 1.02-34.819 26.77-34.819 26.77s-20.428-12.72-52.149 7.09c-6.912-9.69-9.409-14.29-16.345-13.79-6.937.51-92.574 30.48-92.574 30.48s6.969-26.9-1.596-42.56c-10.048-18.37.708-41.2.708-41.2l-5.583-24.72 36.69-116.45 22.333-127.621-4.786-48.653zM250.706 870.894l-44.733-5.642-42.975-19.075-9.669-16.605 97.412-13.577c9.903-1.63 19.112-4.273 16.135 5.312l-16.17 49.587zM983.52 131.593s-35.62 125.014-34.96 125.343c44.2 10.556 97.63 56.075 97.63 56.075l14.52-77.185-8.91-28.367-68.28-75.866z" fill="#8C8994" opacity=".3"></path><path d="M950.08 351.997s-55.38-35.271-124.74-54.627c-69.353-19.356-152.691-22.797-152.691-22.797s53.659-18.71 107.532-27.098C834.06 239.088 888 231.942 960.84 260.809c70.54 27.959 82.15 46.51 117.03 86.555 35.69 40.975 41.59 56.103 38.99 61.132-2.59 5.03-45.6-46.097-52.54-41.305-6.94 4.791 17.79 19.683 3.64 16.852-14.15-2.83-43.59-21.049-56.18-23.792-12.58-2.742 4.13 11.236 4.13 11.236l-65.83-19.49z" fill="#8C8994" opacity=".3"></path><path d="M1041.43 573.816s-2.41-21.368 12.67-30.006c12.27-7.026 16.95-15.005 16.95-15.005l-11.96-30.466s-26.77-2.309-46.06-18.371c-1.39-1.155-3.92-4.372-5.21-5.479-27.55-23.711-30.83-33.971-30.83-33.971l71.56 34.883-19.87-25.083s25.15 19.947 27.99 13.665c3.55-7.866-42.63-59.627-50.75-73.836-6.91-12.098 44.66 19.415 45.93 14.463 1.26-4.952-36.03-33.492-36.03-33.492s-66.75-22.276-118.73-25.035c-51.97-2.759-107.093 8.288-107.093 8.288l12.488 6.986s45.615-1.911 72.515 1.134c16.56 1.875 36.97 33.614 49.39 45.22 16.6 15.514 17.08 14.66 17.08 14.66-7.44 2.483-8.3 21.303-4.82 28.672 4.49 9.497 11.74 12.641 14.48 22.784 1.54 5.729-2.34 12.208.2 17.695 3.85 8.359 12.98 13.734 15.48 23.125 1.48 5.539-4.47 9.363-8.04 12.266-7.86 6.382-18.5 12.74-16.29 24.331 2.79 14.673 21.87 17.653 25.97 33.388 2.06 7.871 4.88 9.749.86 19.785-4.37 10.937-14.45 14.526-7.17 26.667 4.44 0 10.14 4.027 14.08 5.631 4.82 1.963 10.58 2.962 16.38 3.297 5.19.3 10.41.067 14.99-.482 2.04-.245 7.45.392 9.25-.805 9.67-6.447-1.55-30.374 12.87-32.776 2.97-.495 6.38 1.402 9.25 2.011 2.85.606 4.58.723 6.83 2.413l-4.36-36.557zM1141.9 711.017s-15.91-5.195-28.19-16.027c-12.27-10.833-24.61-26.285-24.61-26.285l-20.35-17.483s-20.92 19.944-38.19 22.861c-3.16 45.133-3.05 89.776-3.05 89.776s8.89-9.038 14.56-2.809c5.67 6.228 39.74 53.23 39.74 53.23s24.62-8.84 48.65-13.972c24.02-5.132 45.28-6.351 45.28-6.351l5.52-8.227s30.19-14.554 24.38-19.365c-5.82-4.812-21.29 2.836-22.11-2.756-.82-5.592 19.33-15.612 20.2-19.876.87-4.263-13.74 3.536-16.42.831-2.69-2.705 7.02-9.416 1.29-9.345-5.72.072-13.99 9.359-24.73 7.93-10.73-1.43-18.21-13.646-18.21-13.646l-3.76-18.486z" fill="#282530" opacity=".45"></path><path d="M1169.54 725.907c0-5.852-10.47-5.716-14.42-14.561-6.75-15.12-1.33-17.236 2.18-19.867 3.51-2.631-11.17-18.726-8.71-22.453 4.87-7.397 21.78 10.51 21.77 2.993 0-7.516-20.77-31.198-20.77-31.198l4.8-8.823-2.47-31.963s17.26-5.194 32.49 3.959c10.02 6.026 9.83 9.378 14.23-6.566 3.84-13.922-7.43-86.152-7.43-86.152s-9.28-10.482-15.53-18.481c-8.94-22.277-24.82-53.384-24.82-53.384l-39.53-30.114s-43.36-47.09-47.46-41.048c-3.94 5.815 11.56 19.374 4.27 17.274-13.48-3.885-51.32-27.216-57.56-23.183-6.25 4.033 36.11 31.898 36.56 39.746.45 7.849-40.55-26.606-40.52-13.719.03 12.886 52.36 66.767 50.67 74.375-1.55 6.972-28.17-11.381-28.17-11.381s22.76 25.804 11.18 20.714c-32.99-14.508-62.44-30.997-62.44-30.997s-9.48 5.424 36.81 36.362c25.9 17.308 46.63 22.239 46.63 22.239s-6.54 10.258 5.93 21.744c12.48 11.487 26.65 30.175 13.26 15.245-10.24-11.419-37.14 8.475-40.63 39.063-2.31 20.353 4.85 34.072 4.85 34.072l17.12 32.77 30.85 25.242s-10.91-2.599 20.26 26.93c11.56 10.961 27.17 15.665 27.17 15.665l9.57 12.911s19.86 6.389 19.86 2.586z" fill="#282530" opacity=".2"></path><path d="M832.72 1052.63l7.03 3.82-15.91 26.37s-5.3 40.22-26.905 63.29c-21.606 23.06-39.546 15.07-61.145 28.63-21.599 13.55-33.638-16.8-33.638-16.8l130.568-105.31zM841.66 1015.59s37.88-74.708 49.67-87.336c11.8-12.628 19.9 11.199 9.06 35.264-6.96 15.445-39.65 48.852-54.68 59.102.01 1.39-4.05-7.03-4.05-7.03z" fill="#8C8994" opacity=".3"></path><path d="M840.82 1021.65c-10.72 1.79-21.32 7.75-22.87 17.16-1.55 9.41 22.87 18.11 22.87 18.11l11.44 1.9 6.65-23.03s29.8 12.65 31.93 9.84c2.06-2.69-23.5-20.81-25.72-22.55-4.52-3.53-13.58-3.21-24.3-1.43z" fill="#8C8994" opacity=".3"></path><path d="M930.89 1049.1s3.66 26.3-16.07 30.08c-19.74 3.78-62.86-14.94-62.86-14.94l8.23-27.44 44.13 11.28 26.57 1.02zM779.874 903.607l19.676 94.843 10.17-11.936 20.12-12.602 8.18.221 13.04-11.496-40.68-25.867z" fill="#8C8994" opacity=".3"></path><g stroke="#282530" stroke-linecap="round" stroke-linejoin="round"><path d="M1639.83 876.206c-10.4-27.491-67.88-88.313-96.62-101.277M1539.79 775.693c-16.19 6.124.01.107-48.37 6.635-35.83 4.833-71.87 9.018-107.96 11.677-12.81.943-47.76 2.039-56.2 11.183M1328.55 810.001c-3.79-1.711-6.08-22.612-8.02-24.002-1.41-1.01-4.18 2.114-5.39 2.569-8.56 3.239-20.79 2.696-29.81 3.855-33.82 4.348-68.53-1.728-102.42 1.101" stroke-width="8"></path><path d="M1340.5 1487.25c-8.11-32.44-2.07-94.93.65-129.05 7.58-94.66 22.73-188.71 37.53-282.44 6.14-38.86 8.93-77.64 14.49-116.536 2-14.054 6.25-31.061 1.97-46.086-7.98-27.982-21.65-29.706-45.98-31.803-37.21-3.206-74.18 1.651-111.55 2.103-15.23.184-30.26 2.606-45.5 2.021-14.96-.574-24.1-.984-22.14-1.059 10.13-4.776 18.94-12.164 28.44-18.03 26.47-16.332 37.66-22.213 64.77-37.431 10.97-6.16 39.55-29.172 58.05-41.524M1071.87 868.536c0 30.045 13.08 124.874 14.15 154.944 2.37 66.27 18.45 131.64 32.46 196.07 18.94 87.16 60.41 167.72 84.78 253.03M653.427 1085.22c-11.681 17.52-45.118 42.07-59.792 56.74-20.463 20.47-35.937 46.94-47.606 73.2M546.36 1215.81c2.601 12.98 3.403 21.16 3.239 24.94-1.114 25.63.256 50.16 3.57 75.57 5.727 43.91 18.098 88.18 29.754 130.92 7.218 26.47 15.845 50.28 8.927 77.96M552.838 1197.68c-8.293-7.93-22.541 5.12-29.543 12.44-2.033 2.12-9.967 7.93-8.766 11.29M516.669 1224.13c-26.834-25.68-48.685 1.66-68.308 15.37" stroke-width="8"></path><path d="M404.008 849.527c6.113 15.28-1.158 38.286-1.951 54.14-2.782 55.658-19.201 110.343-35.118 163.393-4.456 14.86-15.259 63.78-21.461 65.85 13.657 27.31-.816 34.6 1.951 59.51 1.211 10.89 9.31 17.09 8.292 28.29-.765 8.41-3.271 23.97-6.995 29.88 2.74-5.79 13.385-7.45 18.853-9.77 17.957-7.65 33.855-14.4 52.407-20.41 6.21-2.01 21.867-8.04 28.294-6.17 11.108 3.24 8.546 6.94 13.518 14.15M146.142 832.087c-11.851 35.554-15.887 71.762-13.811 109.137 1.105 19.889 6.047 42.692 3.415 62.436-3.739 28.04-13.158 55.07-19.998 82.43-11.198 44.79 5.085 76.55-1.698 122.34-13.69 92.4 6.239 141.86 18.571 234.35M265.649 815.29c3.946-3.551 1.198-.875-13.389-.207-7.276.333-14.718 1.46-21.96 2.321-25.422 3.02-59.618 5.072-83.798 13.964" stroke-width="8"></path><path d="M145.783 831.368c-.253 4.408 1.648-3.799 15.176 11.675 9.299 10.637 31.821 17.173 45.041 21.226 63.118 19.35 137.725 1.185 197.715-22.369M1036.72 756.799c-2.6 4.098-18.3 13.357-23.45 18.523-20.69 20.748-48.21 48.396-63.96 73.205M795.515 1489.05c-14.754-51.79-22.843-97.4-28.162-151.68 4.564-17.53 29.628-91.9 35.794-102.17" stroke-width="8"></path><path d="M954.71 1167.51c-5.21 24.67-37.77 58.31-49.96 71.51-33.94 36.77-128.049 115.14-133.528 117.88" stroke-width="6"></path></g><g fill="#282530"><path d="M661.319 550.08s7.874 9.979 4.234 12.925c-6.425 5.201-11.805-5.6-11.805-5.6l-2.687 6.369s4.582 11.558 12.469 10.671c7.887-.887 14.794-7.026 15.115-13.998.321-6.973-10.35-13.03-10.35-13.03l-6.976 2.663zM794.989 507.408s9.159 9.904 3.872 14.148c-6.446 5.175-13.579-6.691-13.579-6.691l-2.687 6.369s4.582 11.558 12.469 10.671c7.886-.887 14.796-7.025 15.116-13.998.32-6.972-10.351-13.03-10.351-13.03l-4.84 2.531z"></path></g><g stroke="#282530" stroke-linecap="round" stroke-linejoin="round"><path d="M1017.22 658.053c2.63 3.949 7.87 11.782 12.49 13.323 13.59 4.532 30.69-7.706 37.95-19.317M1028.3 673.664c0 4.956-1.83 23.677-1.38 40.09.64 23.828.35 46.899-1.66 50.92M940.17 422.213s-18.96-18.58-26.52-27.452c-9.33-10.946-17.25-23.451-30.64-30.026-8.89-4.363-33.36-3.365-43.1-3.518-29.59-.466-59.393.215-88.859 3.334-21.169 2.24-43.883 4.953-64.096 11.483-15.741 5.086-25.801 13.953-36.373 26.678-8.023 9.657-13.664 21.92-18.455 33.555-10.993 26.696-12.268 64.509-12.241 87.619-.27 11.938 1.707 23.346 2.859 31.984 2.7 20.255 10.044 39.912 11.325 60.399.833 13.336 3.249 58.523 4.157 66.015 1.936 15.971 4.78 31.963 9.881 47.265 14.132 42.397 36.712 84.185 67.559 116.96 11.124 11.82 16.241 16.688 29.113 26.699 1.366 1.784 16.892 12.854 29.196 24.845 16.215 15.803 30.702 33.856 38.204 40.832 10.69 9.942 25.18 14.32 36.5 23.33M396.91 844.659c-1.127 2.664 4.61-7.56 7.291-10.119 6.686-6.385 16.844-10.885 25.095-14.87 19.541-9.438 65.418-27.661 75.134-38.971M504.008 779.926c5.248.549 9.153.292 12.944-.719 7.421-1.98 15.496-4.932 22.214-8.652 16.114-8.923 30.113-20.792 45.884-30.225 6.929-4.145 14.327-5.863 21.524-9.195 8.664-4.011 27.284-10.063 37.187-8.026M635.649 680.133c-10.245-3.415-21.232-3.497-31.132-1.013M251.055 869.889c12.851-58.932 45.456-112.28 77.444-161.807 23.094-35.755 43.085-74.789 69.673-107.779 8.8-12.394 15.877-18.292 27.083-23.895 16.04-4.374 46.321-19.845 59.716-28.35 15.061-9.562 34.937-22.546 49.976-33.162 12.091-5.308 23.851-8.596 35.877-6.361 10.246 1.904 21.104 9.155 29.538 14.857 4.138 2.798 14.493 9.562 18.718 12.236" stroke-width="8"></path><path d="M841.81 677.625c-12.44-13.215-25.16-26.072-37.85-39.092-5.205-5.339-11.079-13.409-18.032-16.521M843.83 564.29c-5.21-1.127-15.5 3.133-20.7 4.855-11.19 3.705-22.765 5.051-34.498 5.063M828.67 714.506c-4.2 2.692-7.93 4.114-9.67 4.486-10.76 2.301-21.673 1.585-32.441 3.459-9.909 1.725-18.823 6.619-28.603 8.744-9.744 2.117-19.626 2.704-28.496 7.268-6.881 3.54-11.943 10.621-17.694 15.591M795.573 741.444c-10.711 11.952-32.655 14.297-47.347 17.449M816.64 695.973c-3.59.995-7.68.122-11.33-.282M762.61 644.956c-1.564-2.017-8.803-1.384-11.2-1.372-10.664.055-23.083 2.248-31.99 8.356M722.205 506.572c-3.733 9.706-5.011 13.52-5.724 24.39-.996 15.182.249 16.675 1.493 29.865M775.255 616.48c-7.843 0-13.77-6.766-18.871-11.867" stroke-width="6"></path><path d="M699.961 663.195c11.908 9.64 28.342 2.821 41.028.19 14.036-2.91 30.672-8.128 35.45-19.257 2.222-5.177 1.529-11.092-4.02-17.356-2.06-2.325-5.4-3.773-7.2-5.03" stroke-width="6"></path><path d="M696.564 523.751c-2.3 21.662-3.531 20.294-6.518 35.848-1.818 9.469-3.447 38.184-4.409 47.732-1.515 15.037-3.628 22.439-5.664 37.342-3.082 25.929 13.796 25.929 21.688 27.993M688.77 520.926c-.179-2.704-3.937-3.121-5.86-3.263-6.008-.444-13.811-.487-19.555 1.497M681.38 532.638c-10.243-2.676-30.952-2.127-37.639 8.141M648.011 526.087c-2.202.146-2.517 3.255-3.403 4.741-3.251 5.446-9.115 9.902-11.852 15.527M828.05 494.353c-4.44-2.231-8.4-3.352-11.89-3.791-11.01-1.387-21.915-1.144-32.101 3.816" stroke-width="6"></path><path d="M873.46 485.043c-3.82-8.796-18.53-12.733-26.49-15.683-23.73-8.795-51.26-9.602-75.931-5.429-7.342 1.241-12.868 2.375-23.023 9.543M677.164 492.122c-3.729 2.595-9.104 3.274-13.175 5.379-9.464 4.895-20.576 11.186-27.979 18.894" stroke-width="8"></path><path d="M830.56 518.961c-1.96-6.07-8.38-9.173-13.96-11.147-9.37-3.319-25.79-4.422-34.522 2.002-9.648 7.098-13.582 16.666-22.044 25.128M835.67 522.106c.47-.387-9.09 4.596-10.51 5.529-4.01 2.635-12.11 4.918-16.51 6.792-11.888 5.059-35.442 5.154-47.869 1.762" stroke-width="6"></path><path d="M803.416 505.332c6.314 1.658 10.174 11.124 7.364 17.006-2.61 5.468-8.06 9.261-14.132 9.656-7.985.52-15.236-8.232-14.256-15.946.503-3.959 3.409-7.516 6.647-9.526M832.07 538.968c-6.08 3.593-12.9 5.061-15.75 5.805-8.79 2.289-13.549 3.87-23.5 4.975M794.39 777.196c-2.614 3.061-14.909 13.326-19.183 16.766" stroke-width="6"></path><path d="M902.47 833.895c-2.85 6.378-9.14 20-13 25.419M836.14 858.789c-30.62 5.982-56.971 20.345-88.891 15.064" stroke-width="8"></path><path d="M856.84 767.794c1.82 3.539 1.3 9.751 1.3 9.751s-3.94 20.013-7.74 29.906M689.663 553.656c-8.435-4.026-13.306-5.367-17.828-5.367-6.259 0-11.366 1.757-17.079 4.214-8.033 3.453-12.839 10.93-14.904 14.027M688.704 569.758c-7.476 7.86-11.693 9.777-15.719 10.735-9.435 2.247-18.334 1.352-30.479-.383" stroke-width="6"></path><path d="M670.877 548.48c9.393 1.725 10.476 15.985 4.902 21.852-7.844 8.257-23.696 2.908-24.263-8.433-.192-3.834 1.15-5.943 3.833-9.585M735.065 719.795c-5.482 9.137-17.244 13.4-23.841 22.197M794.464 708.285c-10.823 0-20.798 1.402-31.446 2.466M832.53 704.603c4.06 2.706 5.02 8.088 3.53 12.542M731.121 655.683c-.548 2.745-11.675 3.319-14.445 3.745M703.232 809.365c5.858 17.574 14.728 30.261 23.083 46.971" stroke-width="6"></path></g><g stroke="#282530" stroke-linecap="round" stroke-linejoin="round" stroke-width="6"><path d="M512.462 551.883c4.999-2.608 15.451-7.289 25.997-10.088 9.624-2.553 19.469-3.371 22.468-2.98 11.374 1.485 22.114 13.176 26.838 22.23M537.309 706.319c2.429 18.038 20.039 27.336 29.715 18.868 7.615-6.662 11.273-39.553 11.409-43.214.379-10.248-.346-20.53-.346-30.769-1.255-5.223-.207-11.434-1.518-16.885-2.722-11.322-7.896-21.514-12.559-32.118-3.106-7.061-7.924-14.132-15.369-17.172-10.865-4.436-24.911-3.827-36.437-4.19-2.127-.067-19.375.072-15.247 0M577.179 700.587c12.338 7.07 15.373.047 18.776-6.411 2.371-4.498 4.817-10.573 6.094-13.127 2.056-4.113 4.801-17.733 5.687-22.164 7.265-36.325-3.498-65.133-19.545-97.226 2.921 2.079 16.283 10.98 24.455 16.703 3.891 2.726 9.497 7.173 16.19 9.086"></path><path d="M468.89 615.413c9.255 9.255 18.434 18.679 28.342 27.266 2.714 2.351 9.993 4.534 10.225 4.843.909 1.212.726 2.912.897 6.278 0 11.77.871 29.628 9.161 38.893 6.955 7.773 21.051 14.318 28.176 3.63 2.816-4.223.767-12.474.346-17.113-.921-10.131 1.21-20.139 1.21-30.25-3.943-12.177-8.661-19.439-12.145-25.296-8.163-13.728-15.573-25.688-27.83-35.782-4.626-3.81-8.597-6.222-18.227-6.019-9.177 2.044-12.921 5.629-18.323 9.68M447.846 655.931c-11.956 0-24.746 5.527-36.373.877M540.749 731.525c-8.219-3.736-16.454-7.509-24.979-10.517-12.219-4.313-31.45-8.614-49.113-.307-10.855 5.105-23.99 22.513-26.042 25.285M479.129 629.548c-3.167 6.334-23.321 13.234-25.831 17.062M375.885 822.77c-7.3-2.857-32.43-22.807-43.945-28.565M428.253 758.683c-5.643 7.524-1.824 17.965.732 25.635"></path></g><g stroke="#282530" stroke-linecap="round" stroke-linejoin="round"><path d="M947.1 419.334c-7.44 2.483-16.55 19.375-13.07 26.744 4.49 9.497 14.36 17.606 17.1 27.749 1.54 5.729-2.34 12.208.2 17.695 3.85 8.359 12.98 13.734 15.48 23.125 1.48 5.539-4.47 9.363-8.04 12.266-7.86 6.382-18.5 12.74-16.29 24.331 2.79 14.673 21.87 17.653 25.97 33.388 2.06 7.871 4.88 9.749.86 19.785-4.37 10.937-14.45 14.526-7.17 26.667 4.44 0 10.14 4.027 14.08 5.631 4.82 1.963 10.58 2.962 16.38 3.297 5.19.3 10.41.067 14.99-.482 2.04-.245 7.45.392 9.25-.805 9.67-6.447-1.55-30.374 12.87-32.776 2.97-.495 11.53 2.747 14.4 3.356" stroke-width="6"></path><path d="M1089.59 616.236c5.63 11.256 13.15 21.572 21.05 31.58 1.54 1.944 18.55 16.167 13.28 13.534-9.32-4.66-33.19-14.635-40.81-19.351 0 6.82 4.81 14.13 7.77 20.051.37.74 5.01 7.278 4.52 8.271-.16.3-4.2-2.225-4.27-2.256-5.9-2.954-10.94-8.652-15.79-13.033-17.98-16.276-29.84-34.854-33.58-59.149-2.44-15.834-3.42-32.919 7.27-46.116 3.48-4.297 7.41-9.136 11.78-12.532.79-.62 11.71-8.234 11.71-7.259M1152.81 602.708c6.02 11.759.76 23.661 1.84 30.618.29 1.893-5.69 4.111-2.05 11.452 1.79 3.619 18.91 26.423 18.35 28.29-1.51 5.103-17.77-8.547-21.22-4.276-5.37 6.642 9.01 17.213 9.57 22.496.11 1.001-2.83.735-3.41 1.016-1.37.659-4.05 3.187-4.75 4.553-5.41 10.607 16.8 26.406 22.88 29.704-18.87.951-24.84 3.449-33.55-14.626 3.15 15.547 10.89 32.43 24.89 32.065 3.56-.093 7.52-1.094 11.9-3.204 8.24-3.968 15.61-11.452 16.32-11.139 1.6.701-2.4 2.556-3.36 4.015-.91 1.388-5.49 9.879-3.76 11.96 1.45 1.744 19.43-7.125 17.87-2.683-1.65 4.714-24.19 16.046-21.78 19.95 5.03 8.174 23.18-1.796 23.44 1.82.54 7.272-28.24 23.503-36.84 29.526" stroke-width="6"></path><path d="M1191.17 510.877c-2.43 26.458 19.51 112.687-5.19 92.734-18.31-12.958-34.21 1.352-39.16-4.593M1191.77 510.953c-18.63-9.317-22.96-45.871-32.79-62.261-6.16-10.27-22.79-20.41-31.85-28.517-4.47-4.002-8.91-7.863-13.78-11.407-.91-.659-2.38-2.376-2.38-2.376s1.22 1.937 1.91 2.851c2.42 3.231-.09 2.649-1.91.476-10.42-12.512-19.19-23.325-31.84-33.745-3.08-2.534-10.34-10.987-15.21-8.555M1062.02 369.795c2.32 4.637 10.23 9.22 9.03 15.209-.57 2.833-10.99-3.288-12.36-3.802-12.38-4.646-24.36-11.253-36.59-16.635-1.14-.502-13.79-7.605-15.69-6.178-1.92 1.441 9.22 10.244 9.98 10.931 10.59 9.58 21.04 19.117 30.9 29.467 1.2 1.26 9.5 8.325 9.5 10.456 0 1.631-2.89-1.512-4.27-2.376-3.14-1.958-6.27-3.923-9.51-5.703-4.69-2.582-35.78-18.605-37.55-13.308-1.43 4.289 7.01 12.296 9.51 15.209 11.61 13.543 22.92 26.546 32.79 41.349 1.41 2.118 12.38 16.613 10.46 18.536-5.77 5.773-28.92-10.993-32.8-16.16" stroke-width="6"></path><path d="M1027.19 448.828c9.1 13.656 19.79 25.268 24.85 28.38 7.93 4.879 9.54 5.738 9.03 5.228-3.77-3.771-46.75-22.902-55.13-27.091-4.2-2.098-33.89-17.694-33.89-17.694s26.15 30.682 36.26 37.181c10.24 6.582 20.15 14.638 31.85 18.536 4.59 1.53 9.1 3.476 13.78 4.753.61.167 8.56.989 8.56 1.425 0 .055-2.39 6.899 1.82 16.179 4.31 9.497 15.25 21.478 19.29 25.523M1129.17 709.983c-7.73-10.74-21.92-17.499-31.5-26.423" stroke-width="6"></path><path d="M1037.57 757.635c11.53 11.856 33.1 40.304 43.88 56.474 0-2.757 4.46 14.342 4.2 16.964-.99 9.933-.37 17.097-1.65 27.004 2.15-3.39-30.97 27.453-39.49 35.393-26.63 24.815-60.01 58.499-90.26 79.21" stroke-width="8"></path><path d="M1196.62 793.476c-39.15 0-74.28 8.364-111.09 20.633M682.634 681.756c-3.396 0-7.9 17.021-9.253 20.267M670.352 588.905c-2.289 0-15.7 10.797-20.509 13.201M672.238 607.292c0 3.041.063.326-3.064 7.544" stroke-width="6"></path></g><g stroke="#282530" stroke-linecap="round" stroke-linejoin="round" stroke-width="8"><path d="M551.97 504.147c-3.03-1.696-4.736-6.123-6.578-8.934-6.047-9.225-9.783-17.146-12.226-27.85-7.644-33.497-2.524-76.31 18.518-104.645 5.165-6.954 8.967-11.819 17.14-20.069 3.678-3.712 35.137-35.135 77.684-56.659 40.268-20.37 91.183-30.404 125.391-36.991 33.951-6.537 74.331-10.993 107.211-7.549 33.23.596 79.37 14.935 107.35 30.672 52.89 29.748 67.63 47.43 96.11 80.975 13.58 15.993 33.79 44.439 39.3 62.802"></path><path d="M642.91 284.577c1.732-25.517 2.692-50.659 7.266-75.92.84-4.643 2.402-14.489 6.056-25.925 6.698-8.93 21.989-30.454 29.623-38.691 18.013-19.435 35.622-32.782 59.547-44.131 23.577-11.184 51.991-22.066 81.618-23.275 32.98-1.347 59.86 2.815 91.02 14.063 5.91 2.13 40.32 19.648 70.38 44.049 23.33 18.943 42.71 43.595 52.53 58.445 7.63 11.551 20.87 30.825 17.9 45.347-1.77 21.342-7.69 53.266-12.99 74.207M1015.04 373.731c-58.74-30.852-163.24-34.163-227.401-21.489"></path></g><g stroke="#282530" stroke-linecap="round" stroke-linejoin="round"><path d="M813.44 1237.77c-12.299-6.15-25.223.48-37.152-2.5-4.708-1.18-9.097-8.48-13.575-10.72-12.759-6.38-25.597-13.94-38.225-21.08-5.766-3.26-29.732-10.66-32.866-15.36-1.506-2.26.357-7.62.357-10.72-4.436-13.3-18.261-28.95-23.683-42.2-1.68-4.11-2.997-8.39-4.644-12.51-5.19-12.97-11.02-46.28-14.636-59.84-8.059-30.22-16.61-69.98-16.61-101.07 36.806 0 79.818 5.827 114.53 17.398 13.247 4.415 36.401 13.962 50.587 15.372 0-7.075-9.997-38.597-13.424-61.133-4.054-26.657-3.322-18.338-6.623-32.909" stroke-width="8"></path><path d="M813.08 1236.34c0-13.33 15.81-41.75 22.87-53.94 1.34-2.32 8.93-10.84 8.93-11.08 0-10.05-2.64-20.09-1.43-30.36 1.42-12.04 12.02-24.14 15.81-35.5M950.62 1000.2c12.25 6.12 25.7 13.16 36.44 21.79 2.82 2.27 3 11.95 10.52 11.95 3.95 5.93 1.07 18.7 1.07 26.08-1.27-2.55 3.71 9.06 5 11.07 5.34 8.3 11.46 18.83 21.44 22.15-25.95 8.65-46.51 65.87-46.8 66.45-.13.25-14.41.46-20.01 2.14-21.85 6.56-16.44 9.65-31.08 24.29-10.47-2.99-24.85-2.33-35.01 1.43-4.4 1.64-15.68 10.2-20.72 8.93-4.34-1.08 7.23-21.11 6.08-25.72-1.59-6.33-15.72-4.99-18.58-9.29-.27-.4 1.43-10.17 1.43-10.71 0-14.99-2.93-30.16-1.07-45.01M853.26 965.599c-.59-4.786 1.64-8.066 2.27-12.723 2.91-21.682 10.75-44.489 28.2-58.979 6.06-5.034 11.15-9.85 16.61-15.437 1.46-1.492 25.11-26.586 35.22-35.585 2-1.788 6.23-3.453 9-2.06.93.468 4.47 7.737 4.33 6.619.59 5.121.3 7.131-1.18 12.211-2.52 8.644-8.43 19.169-9.26 23.24 3.03 24.715 22.78 52.295 18.04 76.93-1.78 9.228-3.04 18.533-4.9 27.725-.28 1.362-2.49 10.35-2.97 9.62" stroke-width="8"></path><path d="M853.8 1057.76c-31.56 3.86-44.46-33.33-47.89-61.32M812.42 1042.62c-8.139-5.02-15.434-15.71-17.104-25.03-.502-2.8-.556-7.87 2.547-13.07 1.32-2.22 3.488-6.27 7.817-8.48-2.309-11.32 22.01-27.675 31.67-21.477 5.54-3.29 12.57-8.536 13.78-9.026" stroke-width="6"></path><path d="M794.244 1020.84c8.908 2.47-46.387-19.13-64.224-26.62-13.432-5.635-60.341-10.809-68.964-9.753M830.16 1053.49c-30.046 19.92-72.559 55.95-98.918 80.54-6.558 6.12-13.627 11.65-20.16 17.79-1.218 1.14-6.699 5.22-6.461 7.17M839.06 1057.64c-1.18 12.76-11.57 12.47-14.54 25.23M754.623 1179.04c7.853-10.05 22.556-15.8 32.158-24.05 12.765-10.96 30.179-55.5 22.069-72.58 7.15.88 20.86 2.65 27.68 1.82M858.74 1036.41c-6.04 22.81-5.18 47.68.96 70.4M949.81 1003.88c-10.13 13.51-6.92 7.69-11.87 33.04-3.1 15.85-5.19 13.58-31.85 10.92-11.25-1.12-40.27-4.34-46.72-14.06-22.74-17.78-27.61-29.8-23.98-59.109M995.22 1035.41c-12.36 8.54-27.48 26.65-31.97 30.96-18.47 17.74-70.13 76-79.19 85.65" stroke-width="6"></path><path d="M869.69 1008.58c-6.28-7.3-2.94-24.914 4.24-30.514 3.63-2.831 7.2 3.867 10.06-1.233 4.39-7.823 6.92-16.406 11.73-24.093 3.17-5.07 6.87-9.791 10.33-14.667 1.51-2.132 4.51-5.6 6.27-7.53" stroke-width="6"></path></g></g></svg>